<svg id="Group_7" data-name="Group 7" xmlns="http://www.w3.org/2000/svg" xmlns:xlink="http://www.w3.org/1999/xlink" width="519.38" height="519.38" viewBox="0 0 519.38 519.38">
  <defs>
    <radialGradient id="radial-gradient" cx="-0.014" cy="0.832" r="1.134" gradientTransform="matrix(0.931, -0.366, -0.331, -0.842, 0.908, 5.053)" gradientUnits="objectBoundingBox">
      <stop offset="0" stop-color="#7c6df1" stop-opacity="0.89"/>
      <stop offset="1" stop-color="#cb9dfb"/>
    </radialGradient>
    <clipPath id="clip-path">
      <circle id="Ellipse_4" data-name="Ellipse 4" cx="153.17" cy="153.17" r="153.17" transform="translate(101.52 84.49)"/>
    </clipPath>
  </defs>
  <path id="Rectangle_10_2_" d="M14.78.5H504.6a14.276,14.276,0,0,1,14.28,14.28V504.6a14.276,14.276,0,0,1-14.28,14.28H14.78A14.276,14.276,0,0,1,.5,504.6V14.78A14.276,14.276,0,0,1,14.78.5Z" stroke="#cb9dfb" stroke-miterlimit="10" stroke-width="1" fill="url(#radial-gradient)"/>
  <g id="Group_6" data-name="Group 6">
    <g id="Group_5" data-name="Group 5">
      <g id="Group_4" data-name="Group 4" clip-path="url(#clip-path)">
        <g id="Group_1" data-name="Group 1">
          <circle id="Ellipse_1" data-name="Ellipse 1" cx="32.55" cy="32.55" r="32.55" transform="translate(295.03 231)" fill="#fff"/>
          <path id="Path_1" data-name="Path 1" d="M379.38,401.84H275.78V324.47a26.232,26.232,0,0,1,26.23-26.23h51.13a26.232,26.232,0,0,1,26.23,26.23v77.37Z" fill="#fff"/>
        </g>
        <g id="Group_2" data-name="Group 2">
          <circle id="Ellipse_2" data-name="Ellipse 2" cx="32.55" cy="32.55" r="32.55" transform="translate(149.25 231)" fill="#fff"/>
          <path id="Path_2" data-name="Path 2" d="M233.6,401.84H130V324.47a26.232,26.232,0,0,1,26.23-26.23h51.13a26.232,26.232,0,0,1,26.23,26.23v77.37Z" fill="#fff"/>
        </g>
        <g id="Group_3" data-name="Group 3">
          <circle id="Ellipse_3" data-name="Ellipse 3" cx="32.55" cy="32.55" r="32.55" transform="translate(222.44 248.15)" fill="#fff" stroke="#7c6df1" stroke-miterlimit="10" stroke-width="4"/>
          <path id="Path_3" data-name="Path 3" d="M306.79,418.99H203.19V341.62a26.232,26.232,0,0,1,26.23-26.23h51.13a26.232,26.232,0,0,1,26.23,26.23v77.37Z" fill="#fff" stroke="#7c6df1" stroke-miterlimit="10" stroke-width="4"/>
        </g>
      </g>
    </g>
    <path id="Path_4" data-name="Path 4" d="M129.31,326.77s27.61,61.14-13.45,108.12c0,0,57.79-4.56,79.08-65.39Z" fill="#fff"/>
  </g>
  <path id="Path_5" data-name="Path 5" d="M422.94,247.76a166.614,166.614,0,0,0-51.2-117.27,165.881,165.881,0,0,0-54.29-34.77,163.624,163.624,0,0,0-124.98,2.42,161.1,161.1,0,0,0-85.22,88.65,158.708,158.708,0,0,0-10.78,60.97A156.174,156.174,0,0,0,144.6,357.59a155.215,155.215,0,0,0,50.88,32.5,153.289,153.289,0,0,0,58.95,10.38A150.653,150.653,0,0,0,375.52,335.5c.04-.06.09-.12.13-.19.34-.49.67-.98,1-1.47.05-.07.09-.15.14-.22a18.524,18.524,0,0,0,2.34-6.3c.02-.11.04-.21.06-.32l-.04-.02-2.02-.93a145.059,145.059,0,0,1-67.77,54.29,142.738,142.738,0,0,1-108.85-2.44,140.537,140.537,0,0,1-44.75-31.49,138.975,138.975,0,0,1-29.07-45.77,137.352,137.352,0,0,1,2.45-104.8,135.464,135.464,0,0,1,30.35-43.05,133.871,133.871,0,0,1,44.06-27.92,131.962,131.962,0,0,1,100.75,2.44,130.169,130.169,0,0,1,41.35,29.21,128.661,128.661,0,0,1,26.79,42.35,126.932,126.932,0,0,1,8.36,48.87h.08c-.04.57-.08,1.16-.08,1.75a21.06,21.06,0,0,0,16.56,20.57.452.452,0,0,1,.08.01.425.425,0,0,0,.11.02,36.63,36.63,0,0,0,4.53.49,21.052,21.052,0,0,0,20.84-21.05,16.822,16.822,0,0,0-.08-1.75h.08Z" fill="#fff"/>
  <path id="Path_6" data-name="Path 6" d="M379.13,320.86s1.06,6.62-1.21,10.53S379.13,320.86,379.13,320.86Z" fill="#fff"/>
  <path id="Path_7" data-name="Path 7" d="M379.19,327c-.02.11-.04.21-.06.32,0-.1.01-.22.02-.34Z" fill="#fff"/>
</svg>
